<svg xmlns="http://www.w3.org/2000/svg" viewBox="0 0 32 32">
  <path d="M10.5,1 L13.5,1 L13.5,4 L17,9 L17,27 Q17,29 15,29 L9,29 Q7,29 7,27 L7,9 L10.5,4 Z" fill="#8b1a2e"/>
  <rect x="10" y="1" width="4" height="3" fill="#c9a84c"/>
  <rect x="8" y="15" width="8" height="7" rx="1" fill="#c9a84c"/>
  <path d="M21,3 L29,3 C29,8.5 26.5,13 25,13 C23.5,13 21,8.5 21,3 Z" fill="none" stroke="#c9a84c" stroke-width="1.4" stroke-linejoin="round"/>
  <path d="M22,6 L28,6 C27.6,9.7 25.9,11.8 25,11.8 C24.1,11.8 22.4,9.7 22,6 Z" fill="#8b1a2e"/>
  <line x1="25" y1="13" x2="25" y2="20" stroke="#c9a84c" stroke-width="1.4" stroke-linecap="round"/>
  <path d="M22,22.5 Q25,21 28,22.5" fill="none" stroke="#c9a84c" stroke-width="1.4" stroke-linecap="round"/>
</svg>
